<?xml version="1.0" encoding="UTF-8" standalone="no"?>
<!-- Created with Inkscape (http://www.inkscape.org/) -->

<svg
   xmlns:osb="http://www.openswatchbook.org/uri/2009/osb"
   xmlns:dc="http://purl.org/dc/elements/1.1/"
   xmlns:cc="http://creativecommons.org/ns#"
   xmlns:rdf="http://www.w3.org/1999/02/22-rdf-syntax-ns#"
   xmlns:svg="http://www.w3.org/2000/svg"
   xmlns="http://www.w3.org/2000/svg"
   xmlns:xlink="http://www.w3.org/1999/xlink"
   xmlns:sodipodi="http://sodipodi.sourceforge.net/DTD/sodipodi-0.dtd"
   xmlns:inkscape="http://www.inkscape.org/namespaces/inkscape"
   width="93mm"
   height="93mm"
   viewBox="0 0 93 93"
   version="1.1"
   id="svg8"
   inkscape:export-filename="C:\Users\Admin.PORTABLE\Desktop\lunatun.png"
   inkscape:export-xdpi="96"
   inkscape:export-ydpi="96"
   inkscape:version="0.92.4 (5da689c313, 2019-01-14)"
   sodipodi:docname="dibujo.svg">
  <defs
     id="defs2">
    <linearGradient
       inkscape:collect="always"
       id="linearGradient2877">
      <stop
         style="stop-color:#c4c4c4;stop-opacity:1;"
         offset="0"
         id="stop2873" />
      <stop
         style="stop-color:#c4c4c4;stop-opacity:0;"
         offset="1"
         id="stop2875" />
    </linearGradient>
    <linearGradient
       inkscape:collect="always"
       id="linearGradient909">
      <stop
         style="stop-color:#c4c4c7;stop-opacity:1;"
         offset="0"
         id="stop905" />
      <stop
         style="stop-color:#c4c4c7;stop-opacity:0;"
         offset="1"
         id="stop907" />
    </linearGradient>
    <linearGradient
       id="linearGradient2432"
       osb:paint="solid">
      <stop
         style="stop-color:#f6ff00;stop-opacity:1;"
         offset="0"
         id="stop2430" />
    </linearGradient>
    <linearGradient
       id="linearGradient938"
       osb:paint="solid">
      <stop
         style="stop-color:#000000;stop-opacity:1;"
         offset="0"
         id="stop936" />
    </linearGradient>
    <linearGradient
       inkscape:collect="always"
       xlink:href="#linearGradient909"
       id="linearGradient911"
       x1="22.52913"
       y1="330.83608"
       x2="45.163978"
       y2="330.83608"
       gradientUnits="userSpaceOnUse"
       gradientTransform="translate(34.54268,104.00508)" />
    <filter
       inkscape:collect="always"
       style="color-interpolation-filters:sRGB"
       id="filter2579"
       x="-0.19379999"
       width="1.3876"
       y="-0.21533334"
       height="1.4306667">
      <feGaussianBlur
         inkscape:collect="always"
         stdDeviation="0.81998262"
         id="feGaussianBlur2581" />
    </filter>
    <filter
       inkscape:collect="always"
       style="color-interpolation-filters:sRGB"
       id="filter2869"
       x="-0.35405118"
       width="1.7081024"
       y="-0.39339023"
       height="1.7867805">
      <feGaussianBlur
         inkscape:collect="always"
         stdDeviation="1.4980177"
         id="feGaussianBlur2871" />
    </filter>
    <radialGradient
       inkscape:collect="always"
       xlink:href="#linearGradient2877"
       id="radialGradient2883"
       cx="-30.125265"
       cy="383.14471"
       fx="-30.125265"
       fy="383.14471"
       r="8.672534"
       gradientTransform="matrix(1,0,0,0.94145548,0,22.431024)"
       gradientUnits="userSpaceOnUse" />
    <filter
       inkscape:collect="always"
       style="color-interpolation-filters:sRGB"
       id="filter2889"
       x="-0.34263017"
       width="1.6852603"
       y="-0.38070022"
       height="1.7614004">
      <feGaussianBlur
         inkscape:collect="always"
         stdDeviation="1.4496945"
         id="feGaussianBlur2891" />
    </filter>
    <filter
       inkscape:collect="always"
       style="color-interpolation-filters:sRGB"
       id="filter3067"
       x="-0.81089141"
       width="2.6217828"
       y="-0.90099052"
       height="2.801981">
      <feGaussianBlur
         inkscape:collect="always"
         stdDeviation="3.4309437"
         id="feGaussianBlur3069" />
    </filter>
    <linearGradient
       inkscape:collect="always"
       xlink:href="#linearGradient909"
       id="linearGradient3105"
       gradientUnits="userSpaceOnUse"
       x1="22.52913"
       y1="330.83608"
       x2="45.163978"
       y2="330.83608"
       gradientTransform="translate(340.51706,39.264393)" />
    <radialGradient
       inkscape:collect="always"
       xlink:href="#linearGradient2877"
       id="radialGradient3107"
       gradientUnits="userSpaceOnUse"
       gradientTransform="matrix(1,0,0,0.94145548,0,22.431024)"
       cx="-30.125265"
       cy="383.14471"
       fx="-30.125265"
       fy="383.14471"
       r="8.672534" />
    <linearGradient
       inkscape:collect="always"
       xlink:href="#linearGradient909"
       id="linearGradient3147"
       gradientUnits="userSpaceOnUse"
       gradientTransform="translate(649.75189,36.392243)"
       x1="22.52913"
       y1="330.83608"
       x2="45.163978"
       y2="330.83608" />
    <radialGradient
       inkscape:collect="always"
       xlink:href="#linearGradient2877"
       id="radialGradient3149"
       gradientUnits="userSpaceOnUse"
       gradientTransform="matrix(1,0,0,0.94145548,0,22.431024)"
       cx="-30.125265"
       cy="383.14471"
       fx="-30.125265"
       fy="383.14471"
       r="8.672534" />
  </defs>
  <sodipodi:namedview
     id="base"
     pagecolor="#ffffff"
     bordercolor="#666666"
     borderopacity="1.0"
     inkscape:pageopacity="0.0"
     inkscape:pageshadow="2"
     inkscape:zoom="0.28931532"
     inkscape:cx="916.44156"
     inkscape:cy="-222.35681"
     inkscape:document-units="mm"
     inkscape:current-layer="layer1"
     showgrid="false"
     inkscape:window-width="1366"
     inkscape:window-height="705"
     inkscape:window-x="-8"
     inkscape:window-y="-8"
     inkscape:window-maximized="1" />
  <metadata
     id="metadata5">
    <rdf:RDF>
      <cc:Work
         rdf:about="">
        <dc:format>image/svg+xml</dc:format>
        <dc:type
           rdf:resource="http://purl.org/dc/dcmitype/StillImage" />
        <dc:title />
      </cc:Work>
    </rdf:RDF>
  </metadata>
  <g
     inkscape:label="Capa 1"
     inkscape:groupmode="layer"
     id="layer1"
     transform="translate(0,-204)">
    <path
       style="fill:#c4c4c7;fill-opacity:1;stroke:none;stroke-width:2.56761003;stroke-miterlimit:4;stroke-dasharray:none;stroke-opacity:1"
       d="M 19.058102,356.80324 A 46.321471,46.321471 0 0 0 -27.2631,403.12496 46.321471,46.321471 0 0 0 19.058102,449.44618 46.321471,46.321471 0 0 0 65.379819,403.12496 46.321471,46.321471 0 0 0 19.058102,356.80324 Z m -24.1659647,41.61503 c 0.274061,-0.002 0.550649,0.006 0.82889,0.0264 2.063146,0.14859 -0.05191,5.07984 0.503327,6.11177 2.45708,-1.99759 1.982917,0.22656 4.139285,1.82831 2.980428,2.21386 2.205548,6.85075 2.205548,6.85075 0,0 -5.485236,-1.28828 -3.443716,1.60765 2.179126,3.09113 -0.861457,3.74789 -2.108917,5.27203 -3.896868,3.55205 2.916793,2.67662 0.185002,4.1274 -2.202416,1.16965 -5.784916,2.69311 -7.2181643,3.95583 2.4061343,0.0679 -0.925431,0.91707 0,0 -2.406126,-1.37591 -6.478344,-3.61174 -7.21868,-1.89188 -0.740352,1.71988 -3.763516,0.43301 -2.035535,-2.23604 3.098459,-4.78587 -0.714584,-4.83161 1.665531,-5.33145 0.08415,-1.23516 2.609747,-0.16535 0.576194,-4.3615 -0.937094,-1.93366 6.074851,0.0421 1.82986,-2.17402 -6.801056,-3.55052 -1.991817,-4.47156 -1.66553,-4.47156 -0.953265,-9.00181 -0.937639,-1.61256 2.591056,-5.33146 1.467543,-1.54665 5.0549283,-3.95176 9.1658493,-3.98219 z m 36.0050297,9.97252 c 0.36553,0.0115 0.7325,0.0921 1.08883,0.25425 0.94435,0.10888 1.38799,1.48988 2.3244,1.19528 0.73595,-0.1279 1.47219,-0.25555 2.20814,-0.38344 2.96248,0.98712 6.06818,1.38249 9.0997,2.0779 2.12845,0.45657 3.57089,2.2752 4.448312,4.15376 0.69191,1.52647 1.64697,3.12648 1.43815,4.85706 -0.66681,1.47515 -2.623372,0.45006 -3.753262,0.17312 -1.54117,-0.81416 -3.0644,0.5031 -3.90674,1.70791 -0.60045,0.60546 -1.71445,2.94429 0.016,2.42052 1.33863,-1.02847 1.79738,2.28445 0.3204,2.48305 -2.42159,1.10118 -5.1839,1.27652 -7.77937,0.77567 -1.14983,-0.38873 -3.09846,-0.19368 -2.65204,1.49655 0.16374,1.3101 0.83525,2.85905 -0.18707,3.9982 -1.28067,1.18181 -3.27365,0.0984 -3.9088,-1.28157 -0.71587,-1.28223 -0.23456,-2.84453 -0.93896,-4.13774 -0.95088,-2.33859 -2.972427,-4.00531 -4.119644,-6.21874 -0.61201,-1.74532 1.972747,-1.24521 2.681484,-2.25412 1.33948,-1.27998 0.89009,-3.93068 -0.805627,-4.67104 -1.563442,0.17436 -2.136969,-1.4785 -1.882059,-2.75952 -0.26289,-1.17084 0.775749,-2.91698 1.876369,-1.55752 0.572147,0.31021 0.930797,1.60203 0.774627,0.33951 0.519,-1.47712 2.07322,-2.71917 3.65714,-2.66909 z"
       id="path840"
       inkscape:connector-curvature="0" />
    <g
       id="g934"
       transform="matrix(-1.0698377,0,0,1.0698377,-98.220249,248.39685)">
      <ellipse
         ry="8.8198948"
         rx="3.2072341"
         cy="124.12112"
         cx="-123.11301"
         id="path856"
         style="fill:#030003;fill-opacity:1;stroke:#040000;stroke-width:1.66499996;stroke-miterlimit:4;stroke-dasharray:none;stroke-opacity:1" />
      <ellipse
         ry="3.2072344"
         rx="0.66817379"
         cy="121.18115"
         cx="-124.04847"
         id="path858"
         style="fill:#030000;fill-opacity:0;stroke:#fffffb;stroke-width:1.66499996;stroke-miterlimit:4;stroke-dasharray:none;stroke-opacity:1" />
    </g>
    <g
       id="g930"
       transform="matrix(-1.0698377,0,0,1.0698377,-112.77768,249.2056)">
      <ellipse
         ry="8.8198948"
         rx="3.2072341"
         cy="123.3193"
         cx="-109.74955"
         id="path856-2"
         style="fill:#000000;fill-opacity:1;stroke:#0a0000;stroke-width:1.66499996;stroke-miterlimit:4;stroke-dasharray:none;stroke-opacity:1" />
      <ellipse
         ry="3.2072344"
         rx="0.66817379"
         cy="120.37934"
         cx="-110.68501"
         id="path858-3"
         style="fill:#030000;fill-opacity:0;stroke:#ffffff;stroke-width:1.66499996;stroke-miterlimit:4;stroke-dasharray:none;stroke-opacity:1" />
    </g>
    <path
       style="fill:#c4c4c7;fill-opacity:1;stroke:#000000;stroke-width:0.1623899px;stroke-linecap:butt;stroke-linejoin:miter;stroke-opacity:1"
       d="m 171.95449,210.90595 c 9.20081,2.8427 10.90467,0.47377 13.9716,7.10676 3.06694,6.63297 -1.1927,4.57992 -3.40771,3.94819 -2.215,-0.63171 -5.11156,4.26408 -3.91886,4.42201 1.1927,0.15789 1.1927,-1.10551 1.70386,0.15789 0.51115,1.26344 0.68153,2.36895 -3.91887,3.15858 -4.60041,0.78964 -8.1785,-2.36892 -6.98581,2.52685 1.1927,4.89578 -4.77078,4.10613 -4.77078,-0.4738 0,-4.57991 -7.49696,-9.00189 -3.5781,-9.79154 3.91887,-0.78964 2.3854,-5.52749 0.51116,-5.52749 -1.87424,0 -1.53347,-2.36892 -1.53347,-2.36892 0,0 -0.17039,-3.79026 1.87424,-1.89513 2.04462,1.89513 -0.68154,0.94758 2.04462,-1.42136 2.72617,-2.36892 5.28195,0.63171 5.28195,0.63171 z"
       id="path2769-4"
       inkscape:connector-curvature="0" />
    <path
       style="fill:#c4c4c7;fill-opacity:1;stroke:#000000;stroke-width:0.22184935px;stroke-linecap:butt;stroke-linejoin:miter;stroke-opacity:1"
       d="m 176.71683,241.67661 c -1.25308,-10.80405 -1.23234,-1.93556 3.40617,-6.39902 2.05771,-1.98005 7.2861,-5.13245 13.13811,-4.74765 2.71203,0.17834 -0.0683,6.0971 0.66157,7.33563 3.22986,-2.39753 2.60671,0.27187 5.44128,2.1943 3.91781,2.6571 2.8992,8.22215 2.8992,8.22215 0,0 -7.2104,-1.54633 -4.5268,1.92939 2.86449,3.71 -1.13236,4.49811 -2.77216,6.3274 -5.12248,4.2632 3.83427,3.21283 0.2433,4.95407 -2.8951,1.40382 -7.60462,3.23215 -9.48864,4.74767 -1.21649,1.10068 3.16289,0.0815 0,0 -3.16288,-1.65137 -8.51545,-4.33483 -9.48863,-2.27063 -0.9732,2.06421 -4.94774,0.51996 -2.67629,-2.68346 4.07296,-5.74404 -0.939,-5.79909 2.18969,-6.39901 0.11062,-1.48245 3.43057,-0.19821 0.75744,-5.23445 -1.23182,-2.32081 7.98552,0.0503 2.40543,-2.60949 -8.94007,-4.26136 -2.61858,-5.3669 -2.18967,-5.3669 z"
       id="path2772-6"
       inkscape:connector-curvature="0"
       sodipodi:nodetypes="csscscscscccscssc" />
    <path
       style="fill:none;stroke:#000000;stroke-width:0.16500001;stroke-linecap:butt;stroke-linejoin:miter;stroke-miterlimit:4;stroke-dasharray:none;stroke-opacity:1"
       d="m 103.75446,320.05655 c -3.1498,-0.18899 -6.299601,-0.37798 -9.449402,-0.56697 -0.566964,-2.70883 -1.133928,-5.41766 -1.700892,-8.12649 -1.952877,0.063 -3.905755,0.12599 -5.858632,0.18899 -0.188988,-1.95288 -0.377975,-3.90575 -0.566963,-5.85863 -1.259921,-0.62996 -2.519842,-1.25992 -3.779763,-1.88988 1.763889,-0.69296 3.527778,-1.38591 5.291667,-2.07887 1.385913,1.07093 2.771826,2.14187 4.157739,3.2128 -0.881944,-2.96081 -1.763889,-5.92163 -2.645833,-8.88244 -0.818949,0.88194 -1.637898,1.76389 -2.456847,2.64583 -0.440972,-1.76389 -0.881945,-3.52778 -1.322917,-5.29167 2.078869,0 4.157739,0 6.236608,0 0.881944,1.76389 1.763889,3.52778 2.645833,5.29167 0.692957,-1.5749 1.385914,-3.1498 2.078871,-4.7247"
       id="path889"
       inkscape:connector-curvature="0" />
    <path
       style="fill:none;stroke:#000000;stroke-width:0.165;stroke-linecap:butt;stroke-linejoin:miter;stroke-opacity:1;stroke-miterlimit:4;stroke-dasharray:none"
       d="m 53.587541,273.01256 -3.674957,6.01356 3.541321,4.81085 -3.34087,6.21402 8.68626,-7.684 -2.873147,-3.40768 4.276312,-6.01357"
       id="path893"
       inkscape:connector-curvature="0" />
    <path
       inkscape:connector-curvature="0"
       id="path897"
       d="m 199.61374,328.77262 -9.4494,-0.56697 -1.7009,-8.12649 -5.85863,0.18899 -0.56696,-5.85863 -3.77976,-1.88988 5.29166,-2.07887 4.15774,3.2128 -2.64583,-8.88244 -2.45685,2.64583 -1.32292,-5.29167 h 6.23661 l 2.64584,5.29167 2.07887,-4.7247 c 7.5171,26.34308 7.37053,26.08036 7.37053,26.08036 z"
       style="fill:#c4c4c7;fill-opacity:1;stroke:#000000;stroke-width:0.16500001;stroke-linecap:butt;stroke-linejoin:miter;stroke-miterlimit:4;stroke-dasharray:none;stroke-opacity:1" />
    <path
       inkscape:connector-curvature="0"
       id="path899"
       d="m 133.82979,279.06943 -3.67496,6.01356 3.54133,4.81085 -3.34087,6.21402 8.68626,-7.684 -2.87315,-3.40768 4.27632,-6.01357 z"
       style="fill:#c4c4c7;fill-opacity:1;stroke:#000000;stroke-width:0.16500001;stroke-linecap:butt;stroke-linejoin:miter;stroke-miterlimit:4;stroke-dasharray:none;stroke-opacity:1" />
    <path
       style="fill:none;stroke:#000000;stroke-width:0.26458332px;stroke-linecap:butt;stroke-linejoin:miter;stroke-opacity:1"
       d="m 264.28339,229.40464 7.37053,26.08036"
       id="path901"
       inkscape:connector-curvature="0" />
    <ellipse
       style="fill:#c4c4c7;fill-opacity:1;stroke:#000000;stroke-width:0.77700001;stroke-miterlimit:4;stroke-dasharray:none;stroke-opacity:0.95979901"
       id="path2379"
       cx="-43.975018"
       cy="490.69846"
       rx="4.0618339"
       ry="1.5231876" />
    <ellipse
       style="fill:#c4c4c7;fill-opacity:1;stroke:#000000;stroke-width:1.17700005;stroke-miterlimit:4;stroke-dasharray:none;stroke-opacity:0.95979901;filter:url(#filter2579)"
       id="path2381"
       ry="4.5695624"
       rx="5.077292"
       cy="501.02902"
       cx="178.91968" />
    <ellipse
       cx="-30.125265"
       cy="383.14471"
       rx="5.077292"
       ry="4.5695624"
       id="ellipse2583"
       style="opacity:0.6;fill:#000000;fill-opacity:1;stroke:#c4c4c4;stroke-width:1.17700005;stroke-miterlimit:4;stroke-dasharray:none;stroke-opacity:1;filter:url(#filter2889)"
       transform="matrix(1.3465924,0,0,1.2739916,118.07979,-203.64714)" />
    <ellipse
       style="fill:#c4c4c7;fill-opacity:1;stroke:#000000;stroke-width:1.17700005;stroke-miterlimit:4;stroke-dasharray:none;stroke-opacity:0.95979901;filter:url(#filter2579)"
       id="ellipse2585"
       ry="4.5695624"
       rx="5.077292"
       cy="353.35794"
       cx="-28.77132"
       transform="matrix(0.85040923,0,0,0.72267691,-78.732582,252.44335)" />
    <ellipse
       cx="-13.539442"
       cy="306.98532"
       rx="5.077292"
       ry="4.5695624"
       id="ellipse2587"
       style="fill:#c4c4c7;fill-opacity:1;stroke:#000000;stroke-width:1.17700005;stroke-miterlimit:4;stroke-dasharray:none;stroke-opacity:0.95979901;filter:url(#filter2579)"
       transform="matrix(0.79771879,0,0,0.70116901,26.654717,308.10039)" />
    <ellipse
       transform="matrix(0.85040923,0,0,0.72267691,111.05851,267.36664)"
       cx="-28.77132"
       cy="353.35794"
       rx="5.077292"
       ry="4.5695624"
       id="ellipse2589"
       style="fill:#c4c4c7;fill-opacity:1;stroke:#000000;stroke-width:1.17700005;stroke-miterlimit:4;stroke-dasharray:none;stroke-opacity:0.95979901;filter:url(#filter2579)" />
    <ellipse
       transform="matrix(1.3465924,0,0,1.2739916,97.770616,-136.28839)"
       style="opacity:0.8;fill:#000000;fill-opacity:1;stroke:#c4c4c4;stroke-width:1.17700005;stroke-miterlimit:4;stroke-dasharray:none;stroke-opacity:1;filter:url(#filter3067)"
       id="ellipse2857"
       ry="4.5695624"
       rx="5.077292"
       cy="383.14471"
       cx="-30.125265" />
    <ellipse
       cx="-30.125265"
       cy="383.14471"
       rx="5.077292"
       ry="4.5695624"
       id="ellipse2859"
       style="opacity:0.7;fill:#000000;fill-opacity:1;stroke:url(#radialGradient2883);stroke-width:1.17700005;stroke-miterlimit:4;stroke-dasharray:none;stroke-opacity:1;filter:url(#filter2869)"
       transform="matrix(1.3465924,0,0,1.2739916,65.614435,-184.01495)" />
    <ellipse
       transform="matrix(1.3465924,0,0,1.2739916,133.31166,-158.62848)"
       style="opacity:0.6;fill:#000000;fill-opacity:1;stroke:#c4c4c4;stroke-width:1.17700005;stroke-miterlimit:4;stroke-dasharray:none;stroke-opacity:1;filter:url(#filter2889)"
       id="ellipse3071"
       ry="4.5695624"
       rx="5.077292"
       cy="383.14471"
       cx="-30.125265" />
    <circle
       r="46.321472"
       cy="358.39764"
       cx="398.23672"
       id="circle3073"
       style="fill:#ca830c;fill-opacity:0.65326631;stroke:none;stroke-width:2.5676105;stroke-miterlimit:4;stroke-dasharray:none;stroke-opacity:1" />
    <g
       transform="matrix(-1.0698377,0,0,1.0698377,280.0008,205.58433)"
       id="g3079">
      <ellipse
         style="fill:#030003;fill-opacity:1;stroke:#040000;stroke-width:1.66499996;stroke-miterlimit:4;stroke-dasharray:none;stroke-opacity:1"
         id="ellipse3075"
         cx="-123.11301"
         cy="124.12112"
         rx="3.2072341"
         ry="8.8198948" />
      <ellipse
         style="fill:#030000;fill-opacity:0;stroke:#fffffb;stroke-width:1.66499996;stroke-miterlimit:4;stroke-dasharray:none;stroke-opacity:1"
         id="ellipse3077"
         cx="-124.04847"
         cy="121.18115"
         rx="0.66817379"
         ry="3.2072344" />
    </g>
    <g
       transform="matrix(-1.0698377,0,0,1.0698377,265.44337,206.39307)"
       id="g3085">
      <ellipse
         style="fill:#000000;fill-opacity:1;stroke:#0a0000;stroke-width:1.66499996;stroke-miterlimit:4;stroke-dasharray:none;stroke-opacity:1"
         id="ellipse3081"
         cx="-109.74955"
         cy="123.3193"
         rx="3.2072341"
         ry="8.8198948" />
      <ellipse
         style="fill:#030000;fill-opacity:0;stroke:#ffffff;stroke-width:1.66499996;stroke-miterlimit:4;stroke-dasharray:none;stroke-opacity:1"
         id="ellipse3083"
         cx="-110.68501"
         cy="120.37934"
         rx="0.66817379"
         ry="3.2072344" />
    </g>
    <path
       inkscape:connector-curvature="0"
       id="path3087"
       d="m 420.48366,371.43135 c 2.96249,0.98712 6.06852,1.38242 9.10004,2.07783 2.12845,0.45657 3.57094,2.27548 4.44837,4.15404 0.69191,1.52647 1.64681,3.12644 1.43799,4.85702 -0.66682,1.47515 -2.62344,0.44981 -3.75333,0.17288 -1.54118,-0.81416 -3.06415,0.50326 -3.90649,1.70807 -0.60045,0.60546 -1.71452,2.9445 0.016,2.42073 1.33863,-1.02846 1.79736,2.28439 0.32038,2.48299 -2.42158,1.10118 -5.18393,1.27636 -7.7794,0.77551 -1.14983,-0.38873 -3.09848,-0.19348 -2.65206,1.49675 0.16374,1.3101 0.83507,2.85911 -0.18723,3.99826 -1.28068,1.18181 -3.27378,0.0984 -3.90893,-1.2816 -0.71586,-1.28223 -0.23444,-2.8448 -0.93883,-4.13801 -0.95088,-2.33859 -2.9722,-4.00516 -4.11942,-6.21859 -0.61201,-1.74532 1.97254,-1.24536 2.68128,-2.25427 1.33947,-1.27998 0.89005,-3.9304 -0.80567,-4.67076 -1.56344,0.17435 -2.13681,-1.47859 -1.8819,-2.75961 -0.26289,-1.17084 0.77587,-2.91729 1.87649,-1.55784 0.57215,0.31022 0.93039,1.60224 0.77422,0.33972 0.63877,-1.818 2.84565,-3.27987 4.74608,-2.41498 0.94435,0.10888 1.38818,1.49014 2.3246,1.19554 0.73594,-0.1279 1.47189,-0.25579 2.20784,-0.38368 z"
       style="fill:#c4c4c7;fill-opacity:1;stroke:#000000;stroke-width:0.1623899px;stroke-linecap:butt;stroke-linejoin:miter;stroke-opacity:1" />
    <path
       sodipodi:nodetypes="csscscscscccscssc"
       inkscape:connector-curvature="0"
       id="path3089"
       d="m 366.06619,364.31171 c -0.95327,-9.00181 -0.93749,-1.61269 2.5912,-5.33159 1.56538,-1.64976 5.54282,-4.2763 9.99467,-3.95569 2.06315,0.14859 -0.052,5.08003 0.50328,6.11196 2.45708,-1.99759 1.98303,0.22652 4.1394,1.82827 2.98043,2.21386 2.20553,6.8506 2.20553,6.8506 0,0 -5.48523,-1.28839 -3.44371,1.60754 2.17913,3.09113 -0.86143,3.74778 -2.10889,5.27192 -3.89687,3.55205 2.91688,2.67689 0.18509,4.12767 -2.20242,1.16965 -5.78513,2.69299 -7.21838,3.95571 -0.92543,0.91707 2.40613,0.0679 0,0 -2.40613,-1.37591 -6.47803,-3.61173 -7.21837,-1.89187 -0.74035,1.71988 -3.76394,0.43323 -2.03596,-2.23582 3.09846,-4.78587 -0.71433,-4.83174 1.66579,-5.33158 0.0841,-1.23516 2.60976,-0.16515 0.57621,-4.36129 -0.93709,-1.93367 6.07489,0.0419 1.8299,-2.17419 -6.80105,-3.55052 -1.99205,-4.47164 -1.66576,-4.47164 z"
       style="fill:url(#linearGradient3105);fill-opacity:1;stroke:#000000;stroke-width:0.17662311px;stroke-linecap:butt;stroke-linejoin:miter;stroke-opacity:0.95979901" />
    <path
       inkscape:connector-curvature="0"
       id="path3091"
       d="m 444.27152,359.32094 c -3.1498,-0.18899 -6.2996,-0.37798 -9.44941,-0.56697 -0.56696,-2.70883 -1.13392,-5.41766 -1.70089,-8.12649 -1.95287,0.063 -3.90575,0.12599 -5.85863,0.18899 -0.18899,-1.95288 -0.37797,-3.90575 -0.56696,-5.85863 -1.25992,-0.62996 -2.51984,-1.25992 -3.77977,-1.88988 1.76389,-0.69296 3.52778,-1.38591 5.29167,-2.07887 1.38591,1.07093 2.77183,2.14187 4.15774,3.2128 -0.88194,-2.96081 -1.76389,-5.92163 -2.64583,-8.88244 -0.81895,0.88194 -1.6379,1.76389 -2.45685,2.64583 -0.44097,-1.76389 -0.88194,-3.52778 -1.32292,-5.29167 2.07887,0 4.15774,0 6.23661,0 0.88195,1.76389 1.76389,3.52778 2.64583,5.29167 0.69296,-1.5749 1.38592,-3.1498 2.07888,-4.7247"
       style="fill:none;stroke:#000000;stroke-width:0.16500001;stroke-linecap:butt;stroke-linejoin:miter;stroke-miterlimit:4;stroke-dasharray:none;stroke-opacity:1" />
    <path
       inkscape:connector-curvature="0"
       id="path3093"
       d="m 394.1046,312.27695 -3.67496,6.01356 3.54132,4.81085 -3.34087,6.21402 8.68626,-7.684 -2.87315,-3.40768 4.27632,-6.01357"
       style="fill:none;stroke:#000000;stroke-width:0.16500001;stroke-linecap:butt;stroke-linejoin:miter;stroke-miterlimit:4;stroke-dasharray:none;stroke-opacity:1" />
    <path
       style="fill:#c4c4c7;fill-opacity:1;stroke:#000000;stroke-width:0.16500001;stroke-linecap:butt;stroke-linejoin:miter;stroke-miterlimit:4;stroke-dasharray:none;stroke-opacity:1"
       d="m 477.4927,341.00843 -3.67496,6.01356 3.54132,4.81085 -3.34087,6.21402 8.68626,-7.684 -2.87315,-3.40768 4.27632,-6.01357 z"
       id="path3095"
       inkscape:connector-curvature="0" />
    <ellipse
       transform="matrix(1.3465924,0,0,1.2739916,458.59685,-164.38275)"
       style="opacity:0.6;fill:#000000;fill-opacity:1;stroke:#c4c4c4;stroke-width:1.17700005;stroke-miterlimit:4;stroke-dasharray:none;stroke-opacity:1;filter:url(#filter2889)"
       id="ellipse3097"
       ry="4.5695624"
       rx="5.077292"
       cy="383.14471"
       cx="-30.125265" />
    <ellipse
       cx="-30.125265"
       cy="383.14471"
       rx="5.077292"
       ry="4.5695624"
       id="ellipse3099"
       style="opacity:0.8;fill:#000000;fill-opacity:1;stroke:#c4c4c4;stroke-width:1.17700005;stroke-miterlimit:4;stroke-dasharray:none;stroke-opacity:1;filter:url(#filter3067)"
       transform="matrix(1.3465924,0,0,1.2739916,438.28767,-97.023997)" />
    <ellipse
       transform="matrix(1.3465924,0,0,1.2739916,406.13149,-144.75056)"
       style="opacity:0.7;fill:#000000;fill-opacity:1;stroke:url(#radialGradient3107);stroke-width:1.17700005;stroke-miterlimit:4;stroke-dasharray:none;stroke-opacity:1;filter:url(#filter2869)"
       id="ellipse3101"
       ry="4.5695624"
       rx="5.077292"
       cy="383.14471"
       cx="-30.125265" />
    <ellipse
       cx="-30.125265"
       cy="383.14471"
       rx="5.077292"
       ry="4.5695624"
       id="ellipse3103"
       style="opacity:0.6;fill:#000000;fill-opacity:1;stroke:#c4c4c4;stroke-width:1.17700005;stroke-miterlimit:4;stroke-dasharray:none;stroke-opacity:1;filter:url(#filter2889)"
       transform="matrix(1.3465924,0,0,1.2739916,473.82872,-119.36409)" />
    <path
       style="fill:none;stroke:#000000;stroke-width:6.965;stroke-linecap:butt;stroke-linejoin:miter;stroke-opacity:1;stroke-miterlimit:4;stroke-dasharray:none"
       d="M 255.21855,152.8049 C 253.8646,508.21535 253.8646,508.89231 253.8646,508.89231"
       id="path3109"
       inkscape:connector-curvature="0" />
    <path
       style="fill:none;stroke:#000000;stroke-width:6.96500015;stroke-linecap:butt;stroke-linejoin:miter;stroke-miterlimit:4;stroke-dasharray:none;stroke-opacity:1"
       d="m 561.98404,164.8811 c -6.70169,355.18923 -6.70169,355.18923 -6.70169,355.18923"
       id="path3111"
       inkscape:connector-curvature="0" />
    <circle
       style="fill:#38a0a9;fill-opacity:1;stroke:none;stroke-width:2.5676105;stroke-miterlimit:4;stroke-dasharray:none;stroke-opacity:1"
       id="circle3115"
       cx="707.47156"
       cy="355.52548"
       r="46.321472" />
    <g
       id="g3121"
       transform="matrix(-1.0698377,0,0,1.0698377,589.23563,202.71218)">
      <ellipse
         ry="8.8198948"
         rx="3.2072341"
         cy="124.12112"
         cx="-123.11301"
         id="ellipse3117"
         style="fill:#030003;fill-opacity:1;stroke:#040000;stroke-width:1.66499996;stroke-miterlimit:4;stroke-dasharray:none;stroke-opacity:1" />
      <ellipse
         ry="3.2072344"
         rx="0.66817379"
         cy="121.18115"
         cx="-124.04847"
         id="ellipse3119"
         style="fill:#030000;fill-opacity:0;stroke:#fffffb;stroke-width:1.66499996;stroke-miterlimit:4;stroke-dasharray:none;stroke-opacity:1" />
    </g>
    <g
       id="g3127"
       transform="matrix(-1.0698377,0,0,1.0698377,574.6782,203.52092)">
      <ellipse
         ry="8.8198948"
         rx="3.2072341"
         cy="123.3193"
         cx="-109.74955"
         id="ellipse3123"
         style="fill:#000000;fill-opacity:1;stroke:#0a0000;stroke-width:1.66499996;stroke-miterlimit:4;stroke-dasharray:none;stroke-opacity:1" />
      <ellipse
         ry="3.2072344"
         rx="0.66817379"
         cy="120.37934"
         cx="-110.68501"
         id="ellipse3125"
         style="fill:#030000;fill-opacity:0;stroke:#ffffff;stroke-width:1.66499996;stroke-miterlimit:4;stroke-dasharray:none;stroke-opacity:1" />
    </g>
    <path
       style="fill:#c4c4c7;fill-opacity:1;stroke:#000000;stroke-width:0.1623899px;stroke-linecap:butt;stroke-linejoin:miter;stroke-opacity:1"
       d="m 729.71849,368.5592 c 2.96249,0.98712 6.06852,1.38242 9.10004,2.07783 2.12845,0.45657 3.57094,2.27548 4.44837,4.15404 0.69191,1.52647 1.64681,3.12644 1.43799,4.85702 -0.66682,1.47515 -2.62344,0.44981 -3.75333,0.17288 -1.54118,-0.81416 -3.06415,0.50326 -3.90649,1.70807 -0.60045,0.60546 -1.71452,2.9445 0.016,2.42073 1.33863,-1.02846 1.79736,2.28439 0.32038,2.48299 -2.42158,1.10118 -5.18393,1.27636 -7.7794,0.77551 -1.14983,-0.38873 -3.09848,-0.19348 -2.65206,1.49675 0.16374,1.3101 0.83507,2.85911 -0.18723,3.99826 -1.28068,1.18181 -3.27378,0.0984 -3.90893,-1.2816 -0.71586,-1.28223 -0.23444,-2.8448 -0.93883,-4.13801 -0.95088,-2.33859 -2.9722,-4.00516 -4.11942,-6.21859 -0.61201,-1.74532 1.97254,-1.24536 2.68128,-2.25427 1.33947,-1.27998 0.89005,-3.9304 -0.80567,-4.67076 -1.56344,0.17435 -2.13681,-1.47859 -1.8819,-2.75961 -0.26289,-1.17084 0.77587,-2.91729 1.87649,-1.55784 0.57215,0.31022 0.93039,1.60224 0.77422,0.33972 0.63877,-1.818 2.84565,-3.27987 4.74608,-2.41498 0.94435,0.10888 1.38818,1.49014 2.3246,1.19554 0.73594,-0.1279 1.47189,-0.25579 2.20784,-0.38368 z"
       id="path3129"
       inkscape:connector-curvature="0" />
    <path
       style="fill:url(#linearGradient3147);fill-opacity:1;stroke:#000000;stroke-width:0.17662311px;stroke-linecap:butt;stroke-linejoin:miter;stroke-opacity:0.95979901"
       d="m 675.30102,361.43956 c -0.95327,-9.00181 -0.93749,-1.61269 2.5912,-5.33159 1.56538,-1.64976 5.54282,-4.2763 9.99467,-3.95569 2.06315,0.14859 -0.052,5.08003 0.50328,6.11196 2.45708,-1.99759 1.98303,0.22652 4.1394,1.82827 2.98043,2.21386 2.20553,6.8506 2.20553,6.8506 0,0 -5.48523,-1.28839 -3.44371,1.60754 2.17913,3.09113 -0.86143,3.74778 -2.10889,5.27192 -3.89687,3.55205 2.91688,2.67689 0.18509,4.12767 -2.20242,1.16965 -5.78513,2.69299 -7.21838,3.95571 -0.92543,0.91707 2.40613,0.0679 0,0 -2.40613,-1.37591 -6.47803,-3.61173 -7.21837,-1.89187 -0.74035,1.71988 -3.76394,0.43323 -2.03596,-2.23582 3.09846,-4.78587 -0.71433,-4.83174 1.66579,-5.33158 0.0841,-1.23516 2.60976,-0.16515 0.57621,-4.36129 -0.93709,-1.93367 6.07489,0.0419 1.8299,-2.17419 -6.80105,-3.55052 -1.99205,-4.47164 -1.66576,-4.47164 z"
       id="path3131"
       inkscape:connector-curvature="0"
       sodipodi:nodetypes="csscscscscccscssc" />
    <path
       style="fill:none;stroke:#000000;stroke-width:0.16500001;stroke-linecap:butt;stroke-linejoin:miter;stroke-miterlimit:4;stroke-dasharray:none;stroke-opacity:1"
       d="m 753.50635,356.44879 c -3.1498,-0.18899 -6.2996,-0.37798 -9.44941,-0.56697 -0.56696,-2.70883 -1.13392,-5.41766 -1.70089,-8.12649 -1.95287,0.063 -3.90575,0.12599 -5.85863,0.18899 -0.18899,-1.95288 -0.37797,-3.90575 -0.56696,-5.85863 -1.25992,-0.62996 -2.51984,-1.25992 -3.77977,-1.88988 1.76389,-0.69296 3.52778,-1.38591 5.29167,-2.07887 1.38591,1.07093 2.77183,2.14187 4.15774,3.2128 -0.88194,-2.96081 -1.76389,-5.92163 -2.64583,-8.88244 -0.81895,0.88194 -1.6379,1.76389 -2.45685,2.64583 -0.44097,-1.76389 -0.88194,-3.52778 -1.32292,-5.29167 2.07887,0 4.15774,0 6.23661,0 0.88195,1.76389 1.76389,3.52778 2.64583,5.29167 0.69296,-1.5749 1.38592,-3.1498 2.07888,-4.7247"
       id="path3133"
       inkscape:connector-curvature="0" />
    <path
       style="fill:none;stroke:#000000;stroke-width:0.16500001;stroke-linecap:butt;stroke-linejoin:miter;stroke-miterlimit:4;stroke-dasharray:none;stroke-opacity:1"
       d="m 703.33943,309.4048 -3.67496,6.01356 3.54132,4.81085 -3.34087,6.21402 8.68626,-7.684 -2.87315,-3.40768 4.27632,-6.01357"
       id="path3135"
       inkscape:connector-curvature="0" />
    <path
       inkscape:connector-curvature="0"
       id="path3137"
       d="m 786.72753,338.13628 -3.67496,6.01356 3.54132,4.81085 -3.34087,6.21402 8.68626,-7.684 -2.87315,-3.40768 4.27632,-6.01357 z"
       style="fill:#c4c4c7;fill-opacity:1;stroke:#000000;stroke-width:0.16500001;stroke-linecap:butt;stroke-linejoin:miter;stroke-miterlimit:4;stroke-dasharray:none;stroke-opacity:1" />
    <ellipse
       cx="-30.125265"
       cy="383.14471"
       rx="5.077292"
       ry="4.5695624"
       id="ellipse3139"
       style="opacity:0.6;fill:#000000;fill-opacity:1;stroke:#c4c4c4;stroke-width:1.17700005;stroke-miterlimit:4;stroke-dasharray:none;stroke-opacity:1;filter:url(#filter2889)"
       transform="matrix(1.3465924,0,0,1.2739916,767.83168,-167.2549)" />
    <ellipse
       transform="matrix(1.3465924,0,0,1.2739916,747.5225,-99.896147)"
       style="opacity:0.8;fill:#000000;fill-opacity:1;stroke:#c4c4c4;stroke-width:1.17700005;stroke-miterlimit:4;stroke-dasharray:none;stroke-opacity:1;filter:url(#filter3067)"
       id="ellipse3141"
       ry="4.5695624"
       rx="5.077292"
       cy="383.14471"
       cx="-30.125265" />
    <ellipse
       cx="-30.125265"
       cy="383.14471"
       rx="5.077292"
       ry="4.5695624"
       id="ellipse3143"
       style="opacity:0.7;fill:#000000;fill-opacity:1;stroke:url(#radialGradient3149);stroke-width:1.17700005;stroke-miterlimit:4;stroke-dasharray:none;stroke-opacity:1;filter:url(#filter2869)"
       transform="matrix(1.3465924,0,0,1.2739916,715.36632,-147.62271)" />
    <ellipse
       transform="matrix(1.3465924,0,0,1.2739916,783.06355,-122.23624)"
       style="opacity:0.6;fill:#000000;fill-opacity:1;stroke:#c4c4c4;stroke-width:1.17700005;stroke-miterlimit:4;stroke-dasharray:none;stroke-opacity:1;filter:url(#filter2889)"
       id="ellipse3145"
       ry="4.5695624"
       rx="5.077292"
       cy="383.14471"
       cx="-30.125265" />
  </g>
</svg>
